<svg width="117" height="30" viewBox="0 0 117 30" fill="none" xmlns="http://www.w3.org/2000/svg">
<path d="M9.09912 3L19.0991 0V30L9.09912 28V3Z" fill="black"/>
<path d="M0.265625 7.35L7.26562 6V24L0.265625 22.65V7.35Z" fill="black"/>
<path d="M27.5627 4.33839V3.34401H33.4878V4.33839H31.0991V11H29.9477V4.33839H27.5627ZM35.2988 7.59069V11H34.1811V3.34401H35.2839V6.19257H35.3549C35.4895 5.88354 35.6951 5.63806 35.9717 5.45613C36.2484 5.2742 36.6097 5.18324 37.0558 5.18324C37.4496 5.18324 37.7935 5.26423 38.0876 5.42623C38.3842 5.58822 38.6135 5.82996 38.7754 6.15145C38.9399 6.47045 39.0222 6.8692 39.0222 7.3477V11H37.9044V7.48228C37.9044 7.0611 37.796 6.73462 37.5792 6.50285C37.3624 6.26859 37.0608 6.15145 36.6745 6.15145C36.4104 6.15145 36.1736 6.20753 35.9643 6.31967C35.7574 6.43182 35.5942 6.59631 35.4745 6.81313C35.3574 7.02746 35.2988 7.28664 35.2988 7.59069ZM42.4621 11.1159C41.8964 11.1159 41.4092 10.995 41.0005 10.7533C40.5942 10.509 40.2802 10.1664 40.0584 9.72525C39.8391 9.28164 39.7295 8.76202 39.7295 8.16638C39.7295 7.57823 39.8391 7.05985 40.0584 6.61126C40.2802 6.16267 40.5893 5.81252 40.9855 5.5608C41.3843 5.30909 41.8503 5.18324 42.3836 5.18324C42.7076 5.18324 43.0216 5.23682 43.3257 5.34398C43.6297 5.45115 43.9026 5.61937 44.1444 5.84865C44.3861 6.07793 44.5768 6.37575 44.7163 6.7421C44.8559 7.10596 44.9257 7.54832 44.9257 8.06919V8.46545H40.3612V7.62807H43.8303C43.8303 7.33399 43.7705 7.07356 43.6509 6.84677C43.5313 6.61749 43.3631 6.43681 43.1462 6.30472C42.9319 6.17264 42.6802 6.10659 42.3911 6.10659C42.0771 6.10659 41.803 6.18385 41.5687 6.33837C41.3369 6.49039 41.1575 6.68976 41.0304 6.93649C40.9058 7.18073 40.8435 7.44614 40.8435 7.73274V8.38694C40.8435 8.77074 40.9108 9.09722 41.0453 9.36637C41.1824 9.63553 41.3731 9.84113 41.6173 9.98319C41.8615 10.1228 42.1469 10.1925 42.4734 10.1925C42.6852 10.1925 42.8783 10.1626 43.0528 10.1028C43.2272 10.0405 43.378 9.9483 43.5051 9.82618C43.6322 9.70406 43.7294 9.55329 43.7967 9.37385L44.8546 9.5645C44.7699 9.87602 44.6179 10.1489 44.3986 10.3832C44.1817 10.615 43.9089 10.7956 43.5799 10.9252C43.2534 11.0523 42.8808 11.1159 42.4621 11.1159ZM47.9888 11V3.34401H49.1439V6.67107H52.9607V3.34401H54.1196V11H52.9607V7.66172H49.1439V11H47.9888ZM57.6605 11.1159C57.0948 11.1159 56.6075 10.995 56.1988 10.7533C55.7926 10.509 55.4786 10.1664 55.2568 9.72525C55.0375 9.28164 54.9278 8.76202 54.9278 8.16638C54.9278 7.57823 55.0375 7.05985 55.2568 6.61126C55.4786 6.16267 55.7876 5.81252 56.1839 5.5608C56.5826 5.30909 57.0487 5.18324 57.582 5.18324C57.906 5.18324 58.22 5.23682 58.524 5.34398C58.8281 5.45115 59.101 5.61937 59.3427 5.84865C59.5845 6.07793 59.7751 6.37575 59.9147 6.7421C60.0542 7.10596 60.124 7.54832 60.124 8.06919V8.46545H55.5596V7.62807H59.0287C59.0287 7.33399 58.9689 7.07356 58.8493 6.84677C58.7296 6.61749 58.5614 6.43681 58.3446 6.30472C58.1303 6.17264 57.8785 6.10659 57.5895 6.10659C57.2754 6.10659 57.0013 6.18385 56.767 6.33837C56.5353 6.49039 56.3558 6.68976 56.2287 6.93649C56.1041 7.18073 56.0418 7.44614 56.0418 7.73274V8.38694C56.0418 8.77074 56.1091 9.09722 56.2437 9.36637C56.3807 9.63553 56.5714 9.84113 56.8156 9.98319C57.0599 10.1228 57.3452 10.1925 57.6717 10.1925C57.8835 10.1925 58.0767 10.1626 58.2511 10.1028C58.4256 10.0405 58.5764 9.9483 58.7035 9.82618C58.8306 9.70406 58.9278 9.55329 58.995 9.37385L60.053 9.5645C59.9682 9.87602 59.8162 10.1489 59.5969 10.3832C59.3801 10.615 59.1072 10.7956 58.7782 10.9252C58.4518 11.0523 58.0792 11.1159 57.6605 11.1159ZM62.5088 11.1271C62.145 11.1271 61.816 11.0598 61.5219 10.9252C61.2279 10.7882 60.9948 10.59 60.8229 10.3308C60.6534 10.0717 60.5687 9.75391 60.5687 9.37759C60.5687 9.0536 60.631 8.78694 60.7556 8.5776C60.8802 8.36825 61.0484 8.20252 61.2603 8.0804C61.4721 7.95829 61.7089 7.86608 61.9705 7.80377C62.2322 7.74147 62.4989 7.69412 62.7705 7.66172C63.1144 7.62184 63.3936 7.58944 63.6079 7.56452C63.8222 7.53711 63.978 7.49349 64.0752 7.43368C64.1724 7.37387 64.221 7.27667 64.221 7.1421V7.11593C64.221 6.78945 64.1288 6.5365 63.9443 6.35706C63.7624 6.17762 63.4908 6.0879 63.1294 6.0879C62.7531 6.0879 62.4565 6.17139 62.2397 6.33837C62.0254 6.50285 61.8771 6.68603 61.7948 6.88789L60.7444 6.64864C60.869 6.29974 61.0509 6.01812 61.2902 5.80379C61.5319 5.58697 61.8098 5.42996 62.1238 5.33277C62.4378 5.23308 62.768 5.18324 63.1144 5.18324C63.3437 5.18324 63.5867 5.21065 63.8434 5.26548C64.1026 5.31782 64.3443 5.41501 64.5686 5.55707C64.7954 5.69912 64.9811 5.90223 65.1256 6.16641C65.2702 6.42809 65.3425 6.76827 65.3425 7.18696V11H64.2509V10.215H64.206C64.1338 10.3595 64.0253 10.5016 63.8808 10.6411C63.7362 10.7807 63.5506 10.8966 63.3238 10.9888C63.097 11.081 62.8254 11.1271 62.5088 11.1271ZM62.7518 10.2299C63.0609 10.2299 63.325 10.1689 63.5443 10.0467C63.7662 9.92462 63.9344 9.76512 64.049 9.56824C64.1661 9.36886 64.2247 9.15578 64.2247 8.92899V8.18881C64.1848 8.22869 64.1076 8.26607 63.9929 8.30096C63.8808 8.33336 63.7524 8.36202 63.6079 8.38694C63.4634 8.40937 63.3225 8.43056 63.1855 8.45049C63.0484 8.46794 62.9338 8.48289 62.8416 8.49535C62.6247 8.52277 62.4266 8.56887 62.2472 8.63367C62.0702 8.69847 61.9282 8.79192 61.821 8.91404C61.7163 9.03367 61.664 9.19317 61.664 9.39254C61.664 9.66917 61.7662 9.87852 61.9705 10.0206C62.1749 10.1601 62.4353 10.2299 62.7518 10.2299ZM67.4226 3.34401V11H66.3049V3.34401H67.4226ZM71.0803 5.258V6.15519H67.9439V5.258H71.0803ZM68.785 3.88232H69.9028V9.31404C69.9028 9.53086 69.9352 9.69409 70 9.80375C70.0648 9.91091 70.1483 9.98443 70.2504 10.0243C70.3551 10.0617 70.4685 10.0804 70.5906 10.0804C70.6803 10.0804 70.7589 10.0742 70.8261 10.0617C70.8934 10.0492 70.9458 10.0393 70.9832 10.0318L71.185 10.9551C71.1202 10.9801 71.028 11.005 70.9084 11.0299C70.7888 11.0573 70.6392 11.0723 70.4598 11.0748C70.1657 11.0797 69.8916 11.0274 69.6374 10.9178C69.3832 10.8081 69.1776 10.6386 69.0206 10.4094C68.8635 10.1801 68.785 9.89222 68.785 9.54581V3.88232ZM73.0315 7.59069V11H71.9138V3.34401H73.0166V6.19257H73.0876C73.2222 5.88354 73.4278 5.63806 73.7044 5.45613C73.9811 5.2742 74.3424 5.18324 74.7885 5.18324C75.1823 5.18324 75.5262 5.26423 75.8203 5.42623C76.1169 5.58822 76.3461 5.82996 76.5081 6.15145C76.6726 6.47045 76.7549 6.8692 76.7549 7.3477V11H75.6371V7.48228C75.6371 7.0611 75.5287 6.73462 75.3119 6.50285C75.0951 6.26859 74.7935 6.15145 74.4072 6.15145C74.1431 6.15145 73.9063 6.20753 73.697 6.31967C73.4901 6.43182 73.3269 6.59631 73.2072 6.81313C73.0901 7.02746 73.0315 7.28664 73.0315 7.59069ZM28.5373 27V13.9091H36.6552V15.6094H30.5125V19.598H36.0736V21.2919H30.5125V27H28.5373ZM41.4457 27.1982C40.5253 27.1982 39.722 26.9872 39.0359 26.5653C38.3499 26.1435 37.8172 25.5533 37.4379 24.7947C37.0587 24.0362 36.869 23.1499 36.869 22.1357C36.869 21.1172 37.0587 20.2266 37.4379 19.4638C37.8172 18.701 38.3499 18.1087 39.0359 17.6868C39.722 17.2649 40.5253 17.054 41.4457 17.054C42.3662 17.054 43.1695 17.2649 43.8555 17.6868C44.5416 18.1087 45.0743 18.701 45.4536 19.4638C45.8328 20.2266 46.0225 21.1172 46.0225 22.1357C46.0225 23.1499 45.8328 24.0362 45.4536 24.7947C45.0743 25.5533 44.5416 26.1435 43.8555 26.5653C43.1695 26.9872 42.3662 27.1982 41.4457 27.1982ZM41.4521 25.5938C42.0487 25.5938 42.543 25.4361 42.9351 25.1207C43.3271 24.8054 43.6169 24.3857 43.8044 23.8615C43.9962 23.3374 44.0921 22.7599 44.0921 22.1293C44.0921 21.5028 43.9962 20.9276 43.8044 20.4034C43.6169 19.875 43.3271 19.451 42.9351 19.1314C42.543 18.8118 42.0487 18.652 41.4521 18.652C40.8513 18.652 40.3527 18.8118 39.9564 19.1314C39.5644 19.451 39.2725 19.875 39.0807 20.4034C38.8932 20.9276 38.7994 21.5028 38.7994 22.1293C38.7994 22.7599 38.8932 23.3374 39.0807 23.8615C39.2725 24.3857 39.5644 24.8054 39.9564 25.1207C40.3527 25.4361 40.8513 25.5938 41.4521 25.5938ZM53.4753 22.9283V17.1818H55.3929V27H53.5136V25.2997H53.4113C53.1855 25.8239 52.8233 26.2607 52.3247 26.6101C51.8304 26.9553 51.2146 27.1278 50.4774 27.1278C49.8467 27.1278 49.2885 26.9893 48.8027 26.7124C48.3211 26.4311 47.9419 26.0156 47.6649 25.4659C47.3922 24.9162 47.2558 24.2365 47.2558 23.4268V17.1818H49.167V23.1967C49.167 23.8658 49.3524 24.3984 49.7231 24.7947C50.0939 25.1911 50.5754 25.3892 51.1677 25.3892C51.5257 25.3892 51.8815 25.2997 52.2352 25.1207C52.5932 24.9418 52.8893 24.6712 53.1237 24.3089C53.3623 23.9467 53.4795 23.4865 53.4753 22.9283ZM58.9721 21.1705V27H57.0609V17.1818H58.8954V18.7798H59.0168C59.2427 18.2599 59.5964 17.8423 60.0779 17.527C60.5637 17.2116 61.1752 17.054 61.9124 17.054C62.5815 17.054 63.1674 17.1946 63.6702 17.4759C64.1731 17.7528 64.563 18.1662 64.84 18.7159C65.117 19.2656 65.2555 19.9453 65.2555 20.755V27H63.3443V20.9851C63.3443 20.2734 63.1589 19.7173 62.7881 19.3168C62.4174 18.9119 61.9082 18.7095 61.2604 18.7095C60.8173 18.7095 60.4231 18.8054 60.0779 18.9972C59.737 19.1889 59.4664 19.4702 59.2661 19.8409C59.0701 20.2074 58.9721 20.6506 58.9721 21.1705ZM70.5941 27.1918C69.8015 27.1918 69.0941 26.9893 68.472 26.5845C67.8541 26.1754 67.3683 25.5937 67.0146 24.8395C66.6651 24.081 66.4904 23.1712 66.4904 22.1101C66.4904 21.049 66.6673 20.1413 67.021 19.3871C67.3789 18.6328 67.869 18.0554 68.4911 17.6548C69.1133 17.2543 69.8185 17.054 70.6069 17.054C71.2163 17.054 71.7063 17.1562 72.0771 17.3608C72.4521 17.5611 72.7418 17.7955 72.9464 18.0639C73.1552 18.3324 73.3171 18.5689 73.4322 18.7734H73.5472V13.9091H75.4585V27H73.592V25.4723H73.4322C73.3171 25.6811 73.1509 25.9197 72.9336 26.1882C72.7205 26.4567 72.4265 26.6911 72.0515 26.8913C71.6765 27.0916 71.1907 27.1918 70.5941 27.1918ZM71.016 25.5618C71.5657 25.5618 72.0302 25.4169 72.4095 25.1271C72.793 24.8331 73.0828 24.4261 73.2788 23.9062C73.4791 23.3864 73.5792 22.7812 73.5792 22.0909C73.5792 21.4091 73.4812 20.8125 73.2852 20.3011C73.0891 19.7898 72.8015 19.3913 72.4222 19.1058C72.043 18.8203 71.5742 18.6776 71.016 18.6776C70.4407 18.6776 69.9613 18.8267 69.5778 19.125C69.1943 19.4233 68.9045 19.8303 68.7085 20.3459C68.5167 20.8615 68.4208 21.4432 68.4208 22.0909C68.4208 22.7472 68.5188 23.3374 68.7149 23.8615C68.9109 24.3857 69.2006 24.8011 69.5842 25.108C69.972 25.4105 70.4492 25.5618 71.016 25.5618ZM80.1435 27.2173C79.5214 27.2173 78.9589 27.1023 78.456 26.8722C77.9532 26.6378 77.5547 26.299 77.2607 25.8558C76.9709 25.4126 76.826 24.8693 76.826 24.2259C76.826 23.6719 76.9326 23.2159 77.1456 22.858C77.3587 22.5 77.6464 22.2166 78.0086 22.0078C78.3708 21.799 78.7756 21.6413 79.2231 21.5348C79.6705 21.4283 80.1265 21.3473 80.591 21.2919C81.179 21.2237 81.6563 21.1683 82.0228 21.1257C82.3892 21.0788 82.6556 21.0043 82.8218 20.902C82.988 20.7997 83.0711 20.6335 83.0711 20.4034V20.3587C83.0711 19.8004 82.9134 19.3679 82.5981 19.0611C82.287 18.7543 81.8225 18.6009 81.2046 18.6009C80.5611 18.6009 80.054 18.7436 79.6833 19.0291C79.3168 19.3104 79.0633 19.6236 78.9226 19.9688L77.1265 19.5597C77.3395 18.9631 77.6506 18.4815 78.0597 18.1151C78.4731 17.7443 78.9482 17.4759 79.4851 17.3097C80.0221 17.1392 80.5867 17.054 81.179 17.054C81.5711 17.054 81.9866 17.1009 82.4255 17.1946C82.8687 17.2841 83.282 17.4503 83.6655 17.6932C84.0533 17.9361 84.3708 18.2834 84.6179 18.7351C84.8651 19.1825 84.9887 19.7642 84.9887 20.4801V27H83.1222V25.6577H83.0455C82.9219 25.9048 82.7366 26.1477 82.4894 26.3864C82.2422 26.625 81.9248 26.8232 81.537 26.9808C81.1492 27.1385 80.6847 27.2173 80.1435 27.2173ZM80.559 25.6832C81.0874 25.6832 81.5391 25.5788 81.9141 25.37C82.2934 25.1612 82.581 24.8885 82.777 24.5518C82.9773 24.2109 83.0775 23.8466 83.0775 23.4588V22.1932C83.0093 22.2614 82.8772 22.3253 82.6812 22.3849C82.4894 22.4403 82.2699 22.4893 82.0228 22.532C81.7756 22.5703 81.5348 22.6065 81.3005 22.6406C81.0661 22.6705 80.8701 22.696 80.7124 22.7173C80.3417 22.7642 80.0029 22.843 79.6961 22.9538C79.3935 23.0646 79.1506 23.2244 78.9674 23.4332C78.7884 23.6378 78.6989 23.9105 78.6989 24.2514C78.6989 24.7244 78.8736 25.0824 79.2231 25.3253C79.5725 25.5639 80.0178 25.6832 80.559 25.6832ZM91.2174 17.1818V18.7159H85.8545V17.1818H91.2174ZM87.2927 14.8295H89.2039V24.1172C89.2039 24.4879 89.2593 24.767 89.3701 24.9545C89.4809 25.1378 89.6237 25.2635 89.7984 25.3317C89.9774 25.3956 90.1712 25.4276 90.3801 25.4276C90.5335 25.4276 90.6677 25.4169 90.7827 25.3956C90.8978 25.3743 90.9873 25.3572 91.0512 25.3445L91.3964 26.9233C91.2856 26.9659 91.1279 27.0085 90.9234 27.0511C90.7188 27.098 90.4631 27.1236 90.1563 27.1278C89.6535 27.1364 89.1847 27.0469 88.7501 26.8594C88.3154 26.6719 87.9639 26.3821 87.6954 25.9901C87.4269 25.598 87.2927 25.1058 87.2927 24.5135V14.8295ZM92.4316 27V17.1818H94.3428V27H92.4316ZM93.3968 15.6669C93.0644 15.6669 92.7789 15.5561 92.5402 15.3345C92.3059 15.1087 92.1887 14.8402 92.1887 14.5291C92.1887 14.2138 92.3059 13.9453 92.5402 13.7237C92.7789 13.4979 93.0644 13.3849 93.3968 13.3849C93.7292 13.3849 94.0125 13.4979 94.2469 13.7237C94.4856 13.9453 94.6049 14.2138 94.6049 14.5291C94.6049 14.8402 94.4856 15.1087 94.2469 15.3345C94.0125 15.5561 93.7292 15.6669 93.3968 15.6669ZM100.15 27.1982C99.2292 27.1982 98.4259 26.9872 97.7399 26.5653C97.0538 26.1435 96.5211 25.5533 96.1418 24.7947C95.7626 24.0362 95.573 23.1499 95.573 22.1357C95.573 21.1172 95.7626 20.2266 96.1418 19.4638C96.5211 18.701 97.0538 18.1087 97.7399 17.6868C98.4259 17.2649 99.2292 17.054 100.15 17.054C101.07 17.054 101.873 17.2649 102.559 17.6868C103.246 18.1087 103.778 18.701 104.157 19.4638C104.537 20.2266 104.726 21.1172 104.726 22.1357C104.726 23.1499 104.537 24.0362 104.157 24.7947C103.778 25.5533 103.246 26.1435 102.559 26.5653C101.873 26.9872 101.07 27.1982 100.15 27.1982ZM100.156 25.5938C100.753 25.5938 101.247 25.4361 101.639 25.1207C102.031 24.8054 102.321 24.3857 102.508 23.8615C102.7 23.3374 102.796 22.7599 102.796 22.1293C102.796 21.5028 102.7 20.9276 102.508 20.4034C102.321 19.875 102.031 19.451 101.639 19.1314C101.247 18.8118 100.753 18.652 100.156 18.652C99.5552 18.652 99.0566 18.8118 98.6603 19.1314C98.2683 19.451 97.9764 19.875 97.7846 20.4034C97.5971 20.9276 97.5034 21.5028 97.5034 22.1293C97.5034 22.7599 97.5971 23.3374 97.7846 23.8615C97.9764 24.3857 98.2683 24.8054 98.6603 25.1207C99.0566 25.4361 99.5552 25.5938 100.156 25.5938ZM107.871 21.1705V27H105.96V17.1818H107.794V18.7798H107.916C108.142 18.2599 108.495 17.8423 108.977 17.527C109.463 17.2116 110.074 17.054 110.811 17.054C111.48 17.054 112.066 17.1946 112.569 17.4759C113.072 17.7528 113.462 18.1662 113.739 18.7159C114.016 19.2656 114.154 19.9453 114.154 20.755V27H112.243V20.9851C112.243 20.2734 112.058 19.7173 111.687 19.3168C111.316 18.9119 110.807 18.7095 110.159 18.7095C109.716 18.7095 109.322 18.8054 108.977 18.9972C108.636 19.1889 108.365 19.4702 108.165 19.8409C107.969 20.2074 107.871 20.6506 107.871 21.1705Z" fill="black"/>
</svg>
