<svg width="25" height="20" viewBox="0 0 25 20" fill="none" xmlns="http://www.w3.org/2000/svg">
<path d="M0.484375 9.80596C0.484375 9.2587 0.891048 8.80642 1.41868 8.73484L1.56536 8.72498L20.5677 8.72584L13.7027 1.88891C13.2797 1.46767 13.2782 0.783224 13.6994 0.360165C14.0824 -0.024435 14.6828 -0.0606194 15.1067 0.252466L15.2282 0.356873L23.9481 9.03937C24.0039 9.0949 24.0523 9.15499 24.0935 9.21845C24.1051 9.23755 24.1169 9.25709 24.1281 9.27703C24.1384 9.29412 24.1477 9.31186 24.1565 9.3298C24.1687 9.3559 24.1806 9.38287 24.1914 9.41038C24.2002 9.4316 24.2076 9.45223 24.2143 9.47303C24.2222 9.49882 24.23 9.52631 24.2366 9.55421C24.2416 9.57369 24.2455 9.59244 24.2489 9.61126C24.2537 9.63927 24.2578 9.66825 24.2607 9.69758C24.2633 9.71994 24.2648 9.7421 24.2656 9.76429C24.2658 9.77774 24.2661 9.79182 24.2661 9.80596L24.2656 9.84784C24.2647 9.86905 24.2633 9.89025 24.2612 9.9114L24.2661 9.80596C24.2661 9.87418 24.2598 9.94092 24.2477 10.0056C24.2449 10.0211 24.2416 10.037 24.2379 10.0528C24.2302 10.0853 24.2213 10.1166 24.2111 10.1474C24.2061 10.1626 24.2002 10.1789 24.194 10.1951C24.1814 10.2276 24.1676 10.2586 24.1525 10.2888C24.1455 10.303 24.1377 10.3179 24.1294 10.3326C24.1159 10.3566 24.102 10.3795 24.0873 10.4017C24.0769 10.4174 24.0654 10.4338 24.0534 10.4499L24.044 10.4624C24.0149 10.5005 23.9833 10.5365 23.9495 10.5703L23.9482 10.5713L15.2282 19.2553C14.8052 19.6766 14.1208 19.6751 13.6995 19.2521C13.3165 18.8675 13.2829 18.2669 13.5977 17.8444L13.7027 17.7234L20.5648 10.8878L1.56536 10.887C0.96835 10.887 0.484375 10.403 0.484375 9.80596Z" fill="#535353"/>
</svg>
